<?xml version="1.0" standalone="no"?><!DOCTYPE svg PUBLIC "-//W3C//DTD SVG 1.1//EN" "http://www.w3.org/Graphics/SVG/1.1/DTD/svg11.dtd"><svg t="1699326698148" class="icon" viewBox="0 0 1024 1024" version="1.1" xmlns="http://www.w3.org/2000/svg" p-id="2932" xmlns:xlink="http://www.w3.org/1999/xlink" width="200" height="200"><path d="M512 68.266667c121.89013299 0 227.293867 43.605333 313.2928 129.5872C911.854933 284.41600001 955.733333 390.0928 955.733333 512c0 121.924267-43.89546699 227.345067-130.491733 313.326933C739.345067 911.83786701 633.924267 955.733333 512 955.733333c-121.90720001 0-227.584-43.8784-314.146133-130.440533C111.872 739.293867 68.266667 633.890133 68.266667 512c0-121.873067 43.588267-227.549867 129.536-314.112C284.450133 111.854933 390.126933 68.266667 512 68.266667z m0 853.33333299c112.4864 0 209.7664-40.516267 289.109333-120.40533299C881.083733 721.76640001 921.6 624.48640001 921.59999999 512c0-112.520533-40.533333-210.090667-120.43946699-290.013867C721.800533 142.626133 624.503467 102.4 512 102.40000001c-112.5376 0-210.1248 40.2432-290.048 119.63733299C142.6432 301.8752 102.4 399.4624 102.40000001 512c0 112.503467 40.226133 209.80053301 119.58613299 289.160533C301.909333 881.06666701 399.479467 921.6 512 921.59999999z m-101.546667-597.33333299a17.032533 17.032533 0 0 1 12.032 4.9664l171.537067 170.666666a17.117867 17.117867 0 0 1 0 24.200534l-171.537067 170.666666A17.066667 17.066667 0 0 1 393.386667 682.666667l0-341.333334a17.066667 17.066667 0 0 1 17.066666-17.066666z m147.31946699 187.733333l-130.25279999-129.62133301L427.52 641.604267 557.77279999 512z m-44.91946699-187.733333a17.032533 17.032533 0 0 1 12.100267 5.034666l169.813333 170.666667a17.066667 17.066667 0 0 1 0 24.081067l-169.813333 170.66666599a17.066667 17.066667 0 0 1-24.200533-24.09813299L658.58559999 512l-157.84959999-158.634667A17.0496 17.0496 0 0 1 512.853333 324.266667z" p-id="2933" fill="#ffffff"></path></svg>