<?xml version="1.0" standalone="no"?><!DOCTYPE svg PUBLIC "-//W3C//DTD SVG 1.1//EN" "http://www.w3.org/Graphics/SVG/1.1/DTD/svg11.dtd"><svg t="1699326703089" class="icon" viewBox="0 0 1024 1024" version="1.1" xmlns="http://www.w3.org/2000/svg" p-id="3103" xmlns:xlink="http://www.w3.org/1999/xlink" width="200" height="200"><path d="M460.8 308.053333a33.9968 33.9968 0 0 1 24.132267 10.00106699l170.666666 170.66666701a34.133333 34.133333 0 0 1 0 48.264533l-170.66666601 170.666667a34.133333 34.133333 0 1 1-48.26453399-48.264534l146.517334-146.53439999-146.517334-146.53440001A34.133333 34.133333 0 0 1 460.8 308.053333z" p-id="3104" fill="#ffffff"></path><path d="M512 68.266667c121.873067 0 227.549867 43.588267 314.112 129.536C912.145067 284.4672 955.733333 390.126933 955.733333 512c0 121.89013299-43.605333 227.293867-129.5872 313.2928C739.58399999 911.854933 633.890133 955.733333 512 955.733333c-121.924267 0-227.32799999-43.895467-313.326933-130.491733C112.162133 739.32799999 68.266667 634.197333 68.266667 512.853333c0-122.7264 43.8784-228.437333 130.440533-314.999466C284.706133 111.872 390.109867 68.266667 512 68.266667z m0 853.33333299c112.503467 0 210.090667-40.533333 290.013867-120.43946699C881.373867 721.783467 921.6 624.503467 921.59999999 512c0-112.520533-40.2432-210.1248-119.62026699-290.065067C722.1248 142.6432 624.5376 102.4 512 102.40000001c-112.520533 0-209.80053301 40.226133-289.160533 119.58613299C142.916267 301.909333 102.4 399.479467 102.40000001 512c0 112.776533 40.4992 209.7664 120.40533299 289.109333C302.23359999 881.083733 399.51359999 921.6 512 921.59999999z" p-id="3105" fill="#ffffff"></path></svg>