<?xml version="1.0" standalone="no"?><!DOCTYPE svg PUBLIC "-//W3C//DTD SVG 1.1//EN" "http://www.w3.org/Graphics/SVG/1.1/DTD/svg11.dtd"><svg t="1693470222891" class="icon" viewBox="0 0 1025 1024" version="1.1" xmlns="http://www.w3.org/2000/svg" p-id="4365" xmlns:xlink="http://www.w3.org/1999/xlink" width="200.1953125" height="200"><path d="M947.005474 556.193024C937.298057 555.624388 926.981388 555.272376 916.258551 555.123448 872.229931 554.487118 820.172723 556.138868 781.383672 558.426948 805.388205 531.606316 823.191906 504.068121 834.821852 476.435153 845.761312 450.440396 851.25812 424.337327 851.352892 398.640427 856.145676 393.238392 862.346508 386.319996 866.895591 381.68968 883.629715 364.617081 943.99983 310.43426 972.553446 327.209002L974.814448 328.779518C981.055898 334.005547 981.570377 344.471145 979.214602 356.290636 976.845289 368.259055 955.413153 427.952223 950.322513 441.707782 969.371796 436.942077 978.212721 417.960489 1006.590331 425.366287 1013.576422 427.654367 1019.140924 430.822478 1021.99764 435.398638L1022.227802 435.75065C1036.75508 460.960149 969.547802 532.770665 947.005474 556.193024ZM838.477364 298.98032C837.096393 299.87389 826.69849 304.639596 825.561219 308.240953 858.271288 320.493689 873.759831 327.154846 876.454079 328.738901 876.603008 328.833674 876.751936 328.914908 876.914403 329.00968 867.816238 336.401939 847.480757 356.764499 824.518721 370.425285 823.692846 404.976649 816.842145 436.292208 805.117426 464.168877 780.89627 521.695815 718.183919 584.7331 660.372663 612.081751 633.673882 624.713578 608.586233 630.386392 587.587344 629.452206 584.189071 628.166007 580.682487 626.988119 577.054052 625.972699 565.992741 622.818127 553.875394 620.949754 540.68847 620.570664 519.148023 603.389754 491.636906 590.189292 461.539851 581.592067 429.939975 572.588675 395.199066 568.594689 361.324648 570.395367 355.110276 570.720302 348.9636 571.288937 342.925234 572.087734 338.741703 566.360765 334.883106 559.388213 331.891002 554.703741 306.749198 515.373132 281.160609 477.653657 255.057541 441.910866 223.037957 398.058253 189.894642 356.669726 155.438051 318.273304 144.661058 287.851315 146.773132 254.288293 158.457233 220.671115 172.036786 181.624824 198.464789 142.524378 232.79953 107.851163 277.166623 63.050824 329.291526 33.292243 383.650353 16.625813 443.451833-1.719445 505.988178-4.264765 563.853589 6.403917 630.871322 18.737887 691.471599 48.767247 734.119247 92.403237 772.921837 132.099397 792.390827 175.356297 807.879369 222.90504 813.660495 223.351825 843.094141 226.709481 882.668451 238.596667 882.505984 243.213444 876.914403 253.679041 869.400294 264.997591 859.990733 279.227013 847.873386 292.928416 838.477364 298.98032ZM617.264691 317.569279C613.257166 272.01076 591.770875 227.955063 553.753543 196.206258L553.699388 196.165642C515.682056 164.443915 468.349936 151.040368 422.547716 155.020815 394.860592 157.430746 367.701487 166.190438 343.520947 181.123884 337.089953 172.26942 332.026391 162.819243 328.059483 153.152442 322.427285 139.410422 318.947779 125.140384 316.862783 111.384825 315.549506 102.638673 307.344911 96.613846 298.544603 97.927123 289.757833 99.2404 283.705929 107.404378 285.019206 116.150531 287.429136 132.126475 291.517895 148.833522 298.233207 165.175017 303.201996 177.292365 309.605913 189.179551 317.810508 200.376251 314.520547 203.341278 311.311819 206.428155 308.211403 209.663961 300.751449 206.766628 293.900748 202.962187 287.659298 198.629728 278.574672 192.334123 270.600239 184.792935 263.681843 177.008047 257.819483 170.414586 247.665282 169.791795 241.031203 175.627076 234.383586 181.475896 233.774333 191.575942 239.636693 198.182943 248.030833 207.619581 257.8601 216.893752 269.273423 224.800491 275.000393 228.780938 281.106453 232.409373 287.578064 235.550406 265.008658 269.912225 255.720948 309.852086 259.13276 348.668215 263.140285 394.240273 284.640115 438.323048 322.684525 470.071853 360.701857 501.807118 408.047516 515.197126 453.836197 511.230218 499.651956 507.249771 543.964893 485.844713 575.889703 448.016926 576.674962 447.08274 577.446681 446.148553 578.2184 445.214367 608.437305 407.88752 621.163905 361.990528 617.264691 317.569279ZM467.700067 248.317622C432.187438 251.4045 397.825619 267.989696 373.076444 297.315031 348.354347 326.640366 337.902289 363.141337 341.002705 398.437343 342.830462 419.206071 349.34269 439.582169 360.404 457.846194 354.514563 454.20422 348.801132 450.101922 343.331402 445.525762 312.151233 419.503927 294.51 383.34143 291.233577 345.919811 287.984233 309.080367 298.652914 271.035957 323.943646 240.248417 325.175689 239.19238 326.245265 237.933259 327.111757 236.51167 353.120053 206.902018 388.632682 190.127276 425.323198 186.945626 462.717739 183.682743 501.357862 194.52743 532.456797 220.210792L533.675301 221.239751C555.676072 239.801632 570.853219 263.440614 578.922425 288.975047 575.903242 285.942325 572.708053 283.031454 569.350397 280.215355 539.889673 255.628648 503.185618 245.230745 467.700067 248.317622ZM489.023891 312.735879C504.485356 325.638485 506.502657 348.573442 493.532357 363.940135 480.562056 379.306827 457.518787 381.324128 442.057323 368.421522 426.595858 355.505378 424.578556 332.597498 437.548857 317.217267 450.532696 301.850575 473.575965 299.833273 489.023891 312.735879ZM261.258373 506.153117 5.778654 472.238082C8.24274 467.621305 9.041537 467.553611 14.971591 459.836417 33.371005 435.858962 61.220596 408.875863 70.955091 400.062015 82.706887 389.433951 95.162708 379.130821 108.281937 369.179703 118.04351 361.787444 128.157095 354.571191 138.609153 347.544483 169.491466 382.515555 199.574981 420.383958 229.008628 460.68937 244.023308 481.255014 246.704017 484.558514 261.258373 506.153117ZM305.138064 572.39913C261.664541 566.455537 218.962738 559.0362 177.465899 549.301705 125.652392 537.130202 75.666641 521.289647 28.402215 500.141829 17.191977 495.118884 9.00092 491.070742 3.964436 487.523541 1.392038 485.709324 0.092301 484.639748 0.011067 484.220041-0.043089 483.488938 0.10584 483.164004 0.363079 482.311051L274.946237 526.312592C285.655536 542.193764 294.658928 556.003479 305.138064 572.39913ZM189.908181 698.270617C213.547163 670.163786 241.098898 645.915552 272.143678 628.815876 299.627717 613.665806 330.009089 604.053162 362.962859 602.306639 393.222381 600.709045 424.334855 604.310402 452.712465 612.393146 499.069781 625.620687 502.454515 643.167148 512.121316 654.147225 533.973158 651.141581 552.602734 652.319468 568.240205 656.773778 584.473389 661.377016 597.511384 669.608689 607.597891 680.345065L608.328994 681.062629 608.76224 681.550031C632.468916 707.829105 640.159032 750.436136 635.677644 792.650538 631.142101 835.284647 614.23197 876.781486 588.846465 900.420468L587.221793 901.896212 586.680235 902.42423C573.953636 913.485541 558.776489 919.86238 541.338339 918.806343 499.191632 916.139172 476.730537 902.153452 462.798972 891.918016 458.737291 897.820992 453.105094 903.899974 450.99302 906.133899 442.125017 915.543459 433.31117 923.057568 424.686868 928.879311 402.686097 943.704446 381.118572 948.063983 361.541271 945.315579 341.787964 942.526558 323.632251 932.467129 308.739421 918.562642 294.009059 904.793544 287.686376 899.337353 276.205358 885.202704 257.061303 905.578802 228.142136 924.587468 201.37566 930.531061 176.044311 936.163258 150.293255 932.020344 128.712191 914.013559L124.894211 910.710059C105.479377 892.63558 104.68058 864.271509 112.925792 833.917215 126.81674 782.767115 165.551636 727.271017 189.908181 698.270617ZM667.656611 795.899883C673.00449 745.575658 662.931522 693.789229 632.672 660.266824L632.55015 660.144973 632.008593 659.535721 631.15564 658.560918C630.627621 658.005821 630.099603 657.437186 629.558045 656.895629 643.895778 653.497356 658.869841 648.217171 674.101144 641.000918 697.767204 629.804218 722.259139 613.895968 746.195977 593.113702 779.718383 589.661273 855.346878 586.195306 915.879461 587.048259 923.637271 587.15657 988.827247 589.715429 989.93744 591.272407 991.859969 593.926038 990.885165 599.598852 988.055528 607.00465 983.113816 619.8531 972.810686 635.057325 960.409021 650.180316 948.237517 664.991912 934.278874 679.451496 921.240879 691.582382 912.291643 699.908828 903.856885 707.111542 896.8031 712.540655 912.684272 725.619267 945.218335 749.353022 954.248805 765.410199 961.573369 778.461734 962.602328 795.074008 950.945304 818.388055 942.700092 834.892018 928.633138 847.022905 912.102097 854.767176 893.228821 863.608101 871.214511 866.722056 850.716562 864.163198 849.72822 886.434747 860.302129 915.611154 822.230641 972.420529L821.567233 973.476566C804.995576 997.819572 783.69883 1016.083597 760.818028 1022.473974 756.363718 1023.733095 751.557396 1024.17988 746.520912 1023.93618 724.479524 1022.893681 698.714929 1009.327668 676.605847 990.251307 654.212447 970.944785 636.137968 946.425772 629.74759 923.829288 628.014606 917.69615 627.188731 911.806713 627.445971 906.404677 627.45951 905.957892 627.45951 905.511108 627.445971 905.077862 649.148885 876.009766 663.364768 836.151139 667.656611 795.899883Z" p-id="4366" fill="#1c4163"></path></svg>